<svg width="24" height="24" viewBox="0 0 24 24" fill="none" xmlns="http://www.w3.org/2000/svg">
<path fill-rule="evenodd" clip-rule="evenodd" d="M9.59988 4.7999C6.94892 4.7999 4.7999 6.94894 4.7999 9.5999C4.7999 12.2509 6.94892 14.3999 9.59988 14.3999C12.2508 14.3999 14.3999 12.2509 14.3999 9.5999C14.3999 6.94894 12.2508 4.7999 9.59988 4.7999ZM2.3999 9.5999C2.3999 5.62345 5.62344 2.3999 9.59988 2.3999C13.5763 2.3999 16.7999 5.62345 16.7999 9.5999C16.7999 11.1549 16.3069 12.5948 15.4688 13.7717L21.2484 19.5514C21.717 20.02 21.717 20.7798 21.2484 21.2484C20.7797 21.7171 20.0199 21.7171 19.5513 21.2484L13.7717 15.4688C12.5947 16.307 11.1549 16.7999 9.59988 16.7999C5.62344 16.7999 2.3999 13.5764 2.3999 9.5999Z" fill="white"/>
</svg>
